<svg xmlns="http://www.w3.org/2000/svg" viewBox="0 0 256 256">
  <defs>
    <linearGradient id="bg" x1="0" x2="1" y1="0" y2="1">
      <stop offset="0%" stop-color="#22304c"/>
      <stop offset="100%" stop-color="#49515f"/>
    </linearGradient>
  </defs>
  <rect width="256" height="256" rx="28" fill="url(#bg)"/>
  <circle cx="128" cy="106" r="52" fill="#efcfb1"/>
  <path d="M68 111c4-44 26-69 60-69 38 0 55 27 59 69-15-14-33-20-59-20s-45 6-60 20Z" fill="#b7b7c8"/>
  <path d="M74 198c17-28 35-41 54-41 18 0 36 13 54 41v28H74Z" fill="#5a6777"/>
  <circle cx="111" cy="108" r="6" fill="#211716"/>
  <circle cx="145" cy="108" r="6" fill="#211716"/>
  <path d="M113 132c10 7 20 7 30 0" fill="none" stroke="#956554" stroke-width="5" stroke-linecap="round"/>
  <path d="M128 42v30M113 57h30" stroke="#f1dbab" stroke-width="7" stroke-linecap="round"/>
</svg>
