<svg xmlns="http://www.w3.org/2000/svg" viewBox="0 0 256 256">
  <defs>
    <linearGradient id="bg" x1="0" x2="1" y1="0" y2="1">
      <stop offset="0%" stop-color="#223419"/>
      <stop offset="100%" stop-color="#1a2638"/>
    </linearGradient>
  </defs>
  <rect width="256" height="256" rx="28" fill="url(#bg)"/>
  <circle cx="128" cy="108" r="54" fill="#e8caa7"/>
  <path d="M70 112c2-48 24-72 58-72 38 0 58 24 58 72-14-16-32-23-58-23-25 0-44 7-58 23Z" fill="#7b5b2e"/>
  <path d="M74 198c17-27 35-42 54-42 19 0 36 15 54 42v28H74Z" fill="#506640"/>
  <circle cx="111" cy="109" r="6" fill="#271b18"/>
  <circle cx="145" cy="109" r="6" fill="#271b18"/>
  <path d="M112 133c10 7 20 7 30 0" fill="none" stroke="#8b5f4d" stroke-width="5" stroke-linecap="round"/>
  <circle cx="128" cy="48" r="13" fill="none" stroke="#f1dbab" stroke-width="6"/>
</svg>
