<svg xmlns="http://www.w3.org/2000/svg" viewBox="0 0 256 256">
  <defs>
    <linearGradient id="bg" x1="0" x2="1" y1="0" y2="1">
      <stop offset="0%" stop-color="#3c1f32"/>
      <stop offset="100%" stop-color="#1a2438"/>
    </linearGradient>
  </defs>
  <rect width="256" height="256" rx="28" fill="url(#bg)"/>
  <circle cx="128" cy="108" r="54" fill="#efc7b1"/>
  <path d="M68 107c2-47 24-71 60-71 39 0 55 27 59 72-14-15-32-22-59-22-28 0-45 6-60 21Z" fill="#6b3657"/>
  <path d="M76 197c17-28 35-43 52-43 17 0 35 15 52 43v30H76Z" fill="#442e52"/>
  <path d="M90 76c13 8 24 11 38 11 16 0 27-4 38-11" fill="none" stroke="#f1dbab" stroke-width="6" stroke-linecap="round"/>
  <circle cx="110" cy="109" r="6" fill="#2d1e1d"/>
  <circle cx="146" cy="109" r="6" fill="#2d1e1d"/>
  <path d="M113 133c10 8 20 8 30 0" fill="none" stroke="#8e5950" stroke-width="5" stroke-linecap="round"/>
</svg>
